<?xml version="1.0" encoding="utf-8"?>
<!-- Generator: Adobe Illustrator 22.1.0, SVG Export Plug-In . SVG Version: 6.00 Build 0)  -->
<svg version="1.1" id="Capa_1" xmlns="http://www.w3.org/2000/svg" xmlns:xlink="http://www.w3.org/1999/xlink" x="0px" y="0px"
	 viewBox="0 0 445.3 1661.2" style="enable-background:new 0 0 445.3 1661.2;" xml:space="preserve">
<style type="text/css">
	.st0{fill:#F9F9F9;}
</style>
<g>
	<g>
		<g>
			<path class="st0" d="M445.3,694.5V483.8C445.3,222.9,247.5,15.7,239.1,7c-4.3-4.5-10.3-7-16.5-7s-12.2,2.5-16.5,7
				C197.7,15.7-0.1,222.9-0.1,483.7v55.5v275.2v307.7v55.4v26.4c0,2,0.3,4,0.8,5.9c1.3,4.7,32.8,115.4,221.9,115.4
				s220.7-110.7,221.9-115.4c0.5-1.9,0.8-3.9,0.8-5.9v-81.8h0V814.5V694.5z M222.6,668.1c-71.2,0-128.9-57.7-128.9-128.9
				s57.7-128.9,128.9-128.9c71.2,0.1,128.9,57.8,128.9,128.9C351.5,610.4,293.8,668.1,222.6,668.1z"/>
			<path class="st0" d="M318.5,1423.8c-26.4,37.6-57.2,72.8-90.2,104.7c-2.8,2.7-9,2.2-11.2,0c-4.9-4.9-12-12.2-16.7-17.2
				c-7-7.4-13.9-14.8-20.7-22.4c-15.4-17.2-30.4-34.8-44.1-53.3c-24-32.4-45.3-66.4-61.4-103.5c-2.2-5.1-4.1-10.2-6.5-15.2
				c-16.9,42.1-14.8,90.3-3.9,133.7c10.6,42.1,29.8,81.8,54.3,117.6c14.4,21.1,30.8,40.9,48.6,59.3c9.9,10.1,21.3,22.8,34.4,29
				c18.5,8.7,40.3,5.1,55.6-8.3c13.8-12,26.5-25.1,38.5-38.8c54.7-62.4,96.9-145.4,94.5-230.2c-1.2-21.4-4.3-42.2-12.1-62.3
				c-9.2,20-17.5,40.2-28.5,59.4C339.7,1392.6,329.4,1408.3,318.5,1423.8z"/>
		</g>
	</g>
</g>
<rect x="75.6" y="392.5" class="st0" width="308" height="302"/>
</svg>
