<?xml version="1.0" encoding="utf-8"?>
<!-- Generator: Adobe Illustrator 22.1.0, SVG Export Plug-In . SVG Version: 6.00 Build 0)  -->
<svg version="1.1" id="Layer_1" xmlns="http://www.w3.org/2000/svg" xmlns:xlink="http://www.w3.org/1999/xlink" x="0px" y="0px"
	 viewBox="0 0 512 512" style="enable-background:new 0 0 512 512;" xml:space="preserve">
<style type="text/css">
	.st0{fill:none;stroke:#F9F9F9;stroke-width:8;stroke-miterlimit:10;}
</style>
<g>
	<g>
		<g>
			<path class="st0" d="M480.6,165.7c0.7-1.7,0.8-3.6,0.1-5.3c-0.7-1.7-2-3-3.7-3.7c-3.3-1.3-81.5-32.6-152.6-4l-90.2,36.2
				c-12.5-11.4-58.4-42.5-158.9-2.1c-3.1,1.2-4.8,4.5-4.1,7.7c0.1,0.4,0.2,0.7,0.3,1.1c1.1,2.6,3.7,4.4,6.6,4.2
				c0.6,0,54.8-2.6,72.1,22.9l-22.3,9c-0.5,0.2-1.1,0.5-1.5,0.9c-1.1,0.9-27.9,21.6-7.2,73.2c20.7,51.6,54.4,48.1,55.8,47.9
				c0.6-0.1,1.1-0.2,1.7-0.4l22.3-9c5.1,30.4-35.8,66-36.3,66.4c-2.2,1.9-2.9,5-1.9,7.6c0,0.1,0,0.1,0.1,0.2c1.4,3.4,5.3,5,8.7,3.6
				c0.2-0.1,0.3-0.1,0.5-0.2c100.1-40.4,111.7-94.4,112.8-111.3l90.2-36.2C444.3,245.6,479.2,168.9,480.6,165.7z M347.8,254.7
				c-19.4,7.8-41.5-1.6-49.3-21c-7.8-19.4,1.6-41.5,21-49.3c19.4-7.8,41.5,1.6,49.3,21C376.6,224.8,367.2,246.9,347.8,254.7z"/>
			<path class="st0" d="M102.9,342.6c-13.1-3.1-26.1-7.6-38.4-13.1c-1-0.5-1.6-2.2-1.2-3.1c0.8-1.9,2-4.6,2.9-6.5
				c1.2-2.7,2.5-5.4,3.8-8.1c3-6.1,6.2-12.1,9.7-17.9c6.2-10.1,13.1-19.6,21.5-28.1c1.1-1.1,2.3-2.2,3.4-3.4
				c-13.3,0-26.3,5.9-36.9,13.6c-10.3,7.5-19.1,17.1-26.1,27.7c-4.2,6.3-7.8,12.9-10.8,19.7c-1.7,3.8-3.9,8.3-4.1,12.6
				c-0.3,6,3,11.5,8.3,14.3c4.8,2.4,9.7,4.5,14.8,6.3c23,8.1,50.3,10.5,73.1,0.5c5.7-2.7,11-5.8,15.7-10.1
				c-6.5-0.3-12.9-0.4-19.3-1.3C113.7,344.9,108.3,343.9,102.9,342.6z"/>
		</g>
	</g>
</g>
</svg>
