<?xml version="1.0" encoding="utf-8"?>
<!-- Generator: Adobe Illustrator 22.1.0, SVG Export Plug-In . SVG Version: 6.00 Build 0)  -->
<svg version="1.1" xmlns="http://www.w3.org/2000/svg" xmlns:xlink="http://www.w3.org/1999/xlink" x="0px" y="0px"
	 viewBox="0 0 512 512" style="enable-background:new 0 0 512 512;" xml:space="preserve">
<style type="text/css">
	.st0{display:none;}
	.st1{display:inline;fill:#231F20;}
	.st2{opacity:0.5;fill:#F9F9F9;}
	.st3{opacity:0.5;}
	.st4{fill:#F9F9F9;}
</style>
<g id="Layer_2" class="st0">
	<rect y="17.5" class="st1" width="507" height="462.5"/>
</g>
<g id="Layer_1">
	<path class="st2" d="M153.2,68.7c-2.7-2.7-7-2.7-9.7,0l-78.4,78.4c-2.7,2.7-2.7,7,0,9.7l102.8,102.8l88.1-88.1L153.2,68.7z"/>
	<path class="st2" d="M446.9,362.5L344.1,259.7L256,347.8l102.8,102.8c2.7,2.7,7,2.7,9.7,0l78.4-78.4
		C449.6,369.5,449.6,365.1,446.9,362.5z"/>
	<g class="st3">
		<path class="st4" d="M154,449.8c-2.7,2.7-7,2.7-9.7,0l0,0C147,452.5,151.3,452.5,154,449.8l102-102l0,0L154,449.8z"/>
		<path class="st4" d="M446.2,157.6c2.7-2.7,2.7-7,0-9.7l-78.5-78.5l78.5,78.5C448.8,150.6,448.8,155,446.2,157.6l-102,102l0,0
			L446.2,157.6z"/>
		
			<rect x="237.7" y="303.7" transform="matrix(0.7071 -0.7071 0.7071 0.7071 -126.8833 301.1379)" class="st4" width="124.6" height="0"/>
		<path class="st4" d="M446.2,157.6c2.7-2.7,2.7-7,0-9.7l-78.5-78.5c-2.7-2.7-7-2.7-9.7,0L65.8,361.7c-2.7,2.7-2.7,7,0,9.7
			l78.5,78.5c2.7,2.7,7,2.7,9.7,0l102-102l88.1-88.1L446.2,157.6z"/>
		<path class="st4" d="M446.2,157.6c2.7-2.7,2.7-7,0-9.7l-78.5-78.5l78.5,78.5C448.8,150.6,448.8,155,446.2,157.6l-102,102l0,0
			L446.2,157.6z"/>
		<path class="st4" d="M154,449.8c-2.7,2.7-7,2.7-9.7,0l0,0C147,452.5,151.3,452.5,154,449.8l102-102l0,0L154,449.8z"/>
		
			<rect x="237.7" y="303.7" transform="matrix(0.7071 -0.7071 0.7071 0.7071 -126.8833 301.1379)" class="st4" width="124.6" height="0"/>
		<path class="st4" d="M446.2,157.6c2.7-2.7,2.7-7,0-9.7l-78.5-78.5c-2.7-2.7-7-2.7-9.7,0L65.8,361.7c-2.7,2.7-2.7,7,0,9.7
			l78.5,78.5c2.7,2.7,7,2.7,9.7,0l102-102l88.1-88.1L446.2,157.6z"/>
		<path class="st4" d="M154,449.8c-2.7,2.7-7,2.7-9.7,0l0,0C147,452.5,151.3,452.5,154,449.8l102-102l0,0L154,449.8z"/>
		<path class="st4" d="M446.2,157.6c2.7-2.7,2.7-7,0-9.7l-78.5-78.5l78.5,78.5C448.8,150.6,448.8,155,446.2,157.6l-102,102l0,0
			L446.2,157.6z"/>
		
			<rect x="237.7" y="303.7" transform="matrix(0.7071 -0.7071 0.7071 0.7071 -126.8833 301.1379)" class="st4" width="124.6" height="0"/>
		<path class="st4" d="M446.2,157.6c2.7-2.7,2.7-7,0-9.7l-78.5-78.5c-2.7-2.7-7-2.7-9.7,0L65.8,361.7c-2.7,2.7-2.7,7,0,9.7
			l78.5,78.5c2.7,2.7,7,2.7,9.7,0l102-102l88.1-88.1L446.2,157.6z"/>
	</g>
	<path class="st2" d="M229.8,374l21.9-21.8c2.4-2.4,6.3-2.4,8.7,0l21.9,21.8L256,347.8L229.8,374z"/>
	<path class="st2" d="M290.2,137.1l-29.9,29.7c-2.4,2.4-6.3,2.4-8.7,0l-29.9-29.7c-0.3-0.3-0.6-0.5-0.9-0.8l35.2,35.2l35.2-35.2
		C290.8,136.6,290.5,136.8,290.2,137.1z"/>
	<path class="st2" d="M133.6,225.4l29.7,29.9c2.4,2.4,2.4,6.3,0,8.7l-29.7,29.9c-0.1,0.1-0.1,0.2-0.2,0.3l34.5-34.5l-34.6-34.6
		C133.4,225.2,133.5,225.3,133.6,225.4z"/>
	<path class="st2" d="M378.5,293.9L348.7,264c-2.4-2.4-2.4-6.3,0-8.7l29.7-29.9c0.2-0.2,0.4-0.5,0.6-0.7l-34.9,34.9l34.8,34.8
		C378.8,294.3,378.6,294.1,378.5,293.9z"/>
</g>
</svg>
